<svg width="20" height="19" viewBox="0 0 20 19" fill="none" xmlns="http://www.w3.org/2000/svg">
<path d="M2.22222 16.8889H3.80556L14.6667 6.57083L13.0833 5.06667L2.22222 15.3847V16.8889ZM0 19V14.5139L14.6667 0.606944C14.8889 0.413426 15.1343 0.263889 15.4028 0.158333C15.6713 0.0527778 15.9537 0 16.25 0C16.5463 0 16.8333 0.0527778 17.1111 0.158333C17.3889 0.263889 17.6296 0.422222 17.8333 0.633333L19.3611 2.11111C19.5833 2.30463 19.7454 2.53333 19.8472 2.79722C19.9491 3.06111 20 3.325 20 3.58889C20 3.87037 19.9491 4.13866 19.8472 4.39375C19.7454 4.64884 19.5833 4.88194 19.3611 5.09306L4.72222 19H0ZM13.8611 5.83194L13.0833 5.06667L14.6667 6.57083L13.8611 5.83194Z" fill="#A3A3A3"/>
</svg>
